<svg xmlns="http://www.w3.org/2000/svg" viewBox="0 0 121.379 37.266"><g data-name="Group 149"><path fill="#fefefe" d="M29.878 9.743a.746.746 0 1 0 1.055 0 .692.692 0 0 0-1.055 0Z" data-name="Path 183"/><path fill="#00985f" d="M37.347 9.256H34.1l-.812.974c-.162.162-.081.244.081.325l1.055.487 3-1.38a.208.208 0 0 0-.077-.406ZM25.25 25.169h-3.978a14.56 14.56 0 0 1-2.76 1.38.156.156 0 0 0-.081.244l3.572 9.986h2.03l-3.248-9.174c2.111 0 7.226-.568 9.986-5.034a6.8 6.8 0 0 1-5.521 2.598Zm5.683-14.371a.746.746 0 0 1-1.055-1.055.692.692 0 0 1 1.055 0 1.569 1.569 0 0 0-2.273 0 1.643 1.643 0 0 0 0 2.273 1.569 1.569 0 0 0 2.273 0 1.643 1.643 0 0 0 0-2.273.854.854 0 0 1 0 1.056Zm-7.875 18.187 2.76 7.794h2.03l-2.923-8.2c-.487.163-1.135.244-1.867.406Zm2.76-9.743a12.019 12.019 0 0 0 .65-1.055c-.081-.081-.162 0-.244.081a14.276 14.276 0 0 1-11.2 4.953h-4.713c-.162 0-.244-.162-.162-.325a66.156 66.156 0 0 1 10.635-11.529l-7.875 6.576a3.75 3.75 0 0 1-2.355.812H.649c-.244 0-.162.244-.162.406a5.813 5.813 0 0 0 5.846 4.059l-2.355 2.355a.2.2 0 0 0 .162.325h8.85c6.333 0 10.311-2.761 12.828-6.658Z" data-name="Path 184"/><path fill="#dc000f" d="M114.153 36.779h7.226V14.452h-7.226v8.2h-6.82v-8.2h-7.226v22.327h7.226v-8.444h6.82ZM28.66 12.016a1.607 1.607 0 1 1 2.273-2.273 1.643 1.643 0 0 1 0 2.273 1.569 1.569 0 0 1-2.273 0Zm2.03 10.555c2.76-4.465 3.735-11.529 3.735-11.529l-1.055-.487c-.162-.081-.162-.162-.081-.325l.812-.974a5.655 5.655 0 0 0-4.871-2.6 7.3 7.3 0 0 0-4.141 1.218 51.464 51.464 0 0 0-4.3 3.41 69.279 69.279 0 0 0-10.64 11.53c-.081.162 0 .325.162.325h4.709a14.276 14.276 0 0 0 11.2-4.953.182.182 0 0 1 .325.162 14.762 14.762 0 0 1-5.277 6.739h3.982a6.357 6.357 0 0 0 5.44-2.517Zm-4.06 5.358 3.086 8.771h8.769c-1.786-5.44-3.735-10.473-5.6-15.1a11.143 11.143 0 0 1-6.255 6.329ZM0 36.779h8.85l3-9.337H3.248C2.192 30.2 1.137 33.288 0 36.779Zm11.935-20.054 4.465-3.653c.974-2.6 1.949-5.2 2.923-7.388.487 1.137.974 2.355 1.461 3.572 2.436-2.03 3.978-3.248 6.008-3.816C25.575 2.76 24.682.812 24.276 0h-9.905c-.812 1.786-3.978 8.363-7.713 17.212h3.572a2.261 2.261 0 0 0 1.705-.487Zm54.722 17.537.487 2.436h5.846V14.452h-7.226v15.507a4.518 4.518 0 0 1-3 1.543c-2.03 0-3.085-1.137-3.085-3.248v-13.8h-7.23v15.505A4.929 4.929 0 0 1 49.2 31.5c-1.867 0-2.923-1.137-2.923-3.248v-13.8h-7.225v14.776c0 5.359 2.355 8.038 7.226 8.038a9.254 9.254 0 0 0 7.226-3c1.137 2.03 3.166 3 6.17 3a8.841 8.841 0 0 0 6.983-3.004Zm22.977-4.384a4.434 4.434 0 0 1-3.491 1.543c-1.949 0-3-1.786-3-5.277 0-4.3 1.137-6.414 3.491-6.414a10.609 10.609 0 0 1 3 .325v9.824Zm-6.008 7.307h.244c3.248 0 5.44-1.137 6.658-2.923l.406 2.436h5.926V15.345a31.314 31.314 0 0 0-10.149-1.38c-7.226 0-11.123 4.384-11.123 12.5 0 7.469 2.76 10.717 8.038 10.717Z" data-name="Path 185"/></g></svg>