<svg xmlns="http://www.w3.org/2000/svg" viewBox="0 0 116.627 47.798"><path fill="#d2091e" fill-rule="evenodd" d="M.007 0 0 47.772l116.619.026.008-47.773Z" data-name="Path 242"/><path fill="#ffd500" fill-rule="evenodd" d="m93.241 29.737 1.957-6.092 2.216 6.1Zm6.126-20.153h-8.508c-2.963 10.88-4.592 17.207-7.772 28.643l8.113.01c.276-.87.554-1.966.87-3.078h6.055c.356 1.31.478 1.9.87 3.081h8.073c-2.57-9.762-4.232-16.28-7.702-28.656ZM24.86 29.217a1.78 1.78 0 0 1-1.463 1.528 7.393 7.393 0 0 1-1.1.1h-3.918v-3.854h4.163a2.759 2.759 0 0 1 1.075.157 1.927 1.927 0 0 1 1.253 1.882q0 .092-.014.184ZM21.605 16.66l.311.01.983.1a1.907 1.907 0 0 1 1.573 1.7 1.917 1.917 0 0 1-1.629 1.941l-1.124.075h-3.327v-3.832Zm9.087 7.243a9.78 9.78 0 0 0 1.8-7.772 7.637 7.637 0 0 0-5.15-5.971 20.368 20.368 0 0 0-4.946-.587L9.56 9.57l.021 28.651h12.185c2.236-.072 4.459.151 6.218-.64 3.1-1.4 5.37-3.657 5.424-7.247a8.012 8.012 0 0 0-2.716-6.432ZM75.16 30.66c.008-7.11.01-21.089.01-21.089h-8.307c-.007 17.68-.006 19.213-.009 28.653h13.943v-7.559h-5.64ZM36.201 9.56s-.009 20.547-.01 28.65h8.406c0-9.288.008-28.649.008-28.649h-8.4Zm21.507.021h-8.306c-.008 17.679-.007 19.215-.014 28.649H63.33c.007-3.457.007-4.687.01-7.557h-5.638Z" data-name="Path 243"/></svg>