<svg xmlns="http://www.w3.org/2000/svg" viewBox="0 0 105.918 14.505"><path fill="#0071b9" d="M8.557 10.35a3.41 3.41 0 0 1-2.455 1.14A2.716 2.716 0 0 1 3.42 8.568v-.039a2.7 2.7 0 0 1 2.554-2.88 3.125 3.125 0 0 1 2.43 1.176l.107.112L10.64 4.65l-.087-.1A5.632 5.632 0 0 0 5.99 2.638 5.862 5.862 0 0 0 0 8.567v.041a5.85 5.85 0 0 0 1.692 4.164 5.921 5.921 0 0 0 4.257 1.727 5.746 5.746 0 0 0 4.666-2.077l.092-.106-2.05-2.066ZM38.624 0h-3.417v2.844h-1.389V5.65h1.389V11c0 2.388 1.025 3.5 3.353 3.5a4.838 4.838 0 0 0 2.58-.668l.078-.041v-2.788l-.223.115a3.076 3.076 0 0 1-1.5.377c-.614 0-.875-.279-.875-.937V5.65h2.637V2.844h-2.633V0Zm9.308 2.643A6.279 6.279 0 0 0 43.5 4.376a5.8 5.8 0 0 0-1.77 4.2v.041a5.756 5.756 0 0 0 1.757 4.174 6.505 6.505 0 0 0 8.829-.021 5.782 5.782 0 0 0 1.771-4.194v-.039a5.764 5.764 0 0 0-1.753-4.187 6.262 6.262 0 0 0-4.402-1.707Zm2.739 5.97a2.692 2.692 0 0 1-2.739 2.881 2.79 2.79 0 0 1-2.785-2.922v-.039a2.688 2.688 0 0 1 2.74-2.88 2.79 2.79 0 0 1 2.784 2.919Zm7.812-4.027V2.844h-3.415v11.414h3.415V9.87c0-2.467 1.119-3.772 3.242-3.772h.312V2.65h-.14a3.432 3.432 0 0 0-3.415 1.936Zm30.711-1.943a4.715 4.715 0 0 0-3.63 1.648 3.509 3.509 0 0 0-3.168-1.648 3.982 3.982 0 0 0-3.14 1.516V2.844h-3.41v11.414h3.41V7.764c0-1.361.629-2.111 1.77-2.111 1.4 0 1.724 1.149 1.724 2.111v6.494h3.41V7.764c0-1.361.65-2.111 1.787-2.111 1.408 0 1.706 1.149 1.706 2.111v6.494h3.409V6.87c0-2.691-1.378-4.227-3.869-4.227ZM19.286 4.179a4.072 4.072 0 0 0-3.184-1.535c-2.873 0-5.4 2.671-5.4 5.929v.041a5.7 5.7 0 0 0 5.4 5.891 4.053 4.053 0 0 0 3.184-1.567v1.321h3.417V2.844h-3.417Zm.139 4.435a2.645 2.645 0 0 1-2.633 2.881 2.742 2.742 0 0 1-2.672-2.922v-.039a2.644 2.644 0 0 1 2.637-2.884 2.741 2.741 0 0 1 2.669 2.919v.041Zm51.556-4.435a4.079 4.079 0 0 0-3.187-1.535c-2.871 0-5.4 2.671-5.4 5.929v.041a5.694 5.694 0 0 0 5.4 5.891 4.059 4.059 0 0 0 3.187-1.567v1.321h3.412V2.844h-3.412Zm.135 4.435a2.644 2.644 0 0 1-2.629 2.881 2.74 2.74 0 0 1-2.67-2.922v-.039a2.641 2.641 0 0 1 2.632-2.88 2.742 2.742 0 0 1 2.667 2.919v.041Zm31.388-5.769V4.18a4.069 4.069 0 0 0-3.186-1.535c-2.871 0-5.394 2.671-5.394 5.929v.041a5.7 5.7 0 0 0 5.394 5.891 4.049 4.049 0 0 0 3.186-1.567v1.321h3.414V2.844Zm.139 5.769a2.645 2.645 0 0 1-2.63 2.881 2.742 2.742 0 0 1-2.672-2.922v-.039a2.645 2.645 0 0 1 2.632-2.88 2.741 2.741 0 0 1 2.671 2.919v.041ZM27.416 6.242c0-.478.515-.588 1.023-.588a6.211 6.211 0 0 1 3.025.985l1.423-2.6-.114-.074a7.918 7.918 0 0 0-4.272-1.323c-1.574 0-4.5.95-4.5 3.53 0 4.015 5.921 3.276 5.921 4.782 0 .443-.573.544-1.191.544a6.435 6.435 0 0 1-3.481-1.253L23.628 12.7l.114.082a7.961 7.961 0 0 0 4.909 1.726c2.783 0 4.687-1.82 4.687-3.555 0-3.808-5.922-3.356-5.922-4.711Z" data-name="Path 204"/></svg>