<svg xmlns="http://www.w3.org/2000/svg" xmlns:xlink="http://www.w3.org/1999/xlink" viewBox="0 0 123.006 47.177"><defs><path id="reuse-0" fill="#173e7d" d="M0 32.972h123.006V.001H0v32.971"/></defs><use xlink:href="#reuse-0"/><path fill="#173e7d" fill-rule="evenodd" d="M110.801 21.728a.927.927 0 0 1-.9.907h-6.868a.993.993 0 0 1-.954-.907v-10.6c.029-.228.138-.714.918-.791h6.906c.782.078.865.564.894.791Zm2.378-15.388H99.704c-2.023.164-3.734 1.191-3.962 3.487v13.126a4.017 4.017 0 0 0 3.962 3.676h13.475a4.018 4.018 0 0 0 3.962-3.676V9.827c-.228-2.3-1.939-3.323-3.962-3.487ZM58.65 10.336h-6.023V6.341h18.387v3.995H64.99V26.63h-6.34Zm-7.926 0V6.341H34.239V26.63h16.7l.006-3.991h-10.35v-4.344h10.129V14.31H40.597v-3.97ZM87.5 13.479c0 .439-.11.824-.9.824h-7.34V10.32h7.354c.895 0 .888.585.888.951Zm1.757 5.263c1.977-.158 3.95-1.5 3.95-3.717v-5.009a4.042 4.042 0 0 0-3.978-3.684H72.916v20.3h6.34v-7.887h2.523l4.121 7.887h7.292l-4.908-7.887Zm-68.141 7.887 4.244-12.743V26.63h6.342V6.341h-8.56L19.02 16.486 14.9 6.341H6.34V26.63h6.341V13.886L16.96 26.63"/><use xlink:href="#reuse-0"/><path fill="#fee702" fill-rule="evenodd" d="M110.801 21.728a.927.927 0 0 1-.9.907h-6.868a.993.993 0 0 1-.954-.907v-10.6c.029-.228.138-.714.918-.791h6.906c.782.078.865.564.894.791Zm2.378-15.388H99.704c-2.023.164-3.734 1.191-3.962 3.487v13.126a4.017 4.017 0 0 0 3.962 3.676h13.475a4.018 4.018 0 0 0 3.962-3.676V9.827c-.228-2.3-1.939-3.323-3.962-3.487ZM58.65 10.336h-6.023V6.341h18.387v3.995H64.99V26.63h-6.34Zm-7.926 0V6.341H34.239V26.63h16.7l.006-3.991h-10.35v-4.344h10.129V14.31H40.597v-3.97ZM87.5 13.479c0 .439-.11.824-.9.824h-7.34V10.32h7.354c.895 0 .888.585.888.951Zm1.757 5.263c1.977-.158 3.95-1.5 3.95-3.717v-5.009a4.042 4.042 0 0 0-3.978-3.684H72.916v20.3h6.34v-7.887h2.523l4.121 7.887h7.292l-4.908-7.887Zm-68.141 7.887 4.244-12.743V26.63h6.342V6.341h-8.56L19.02 16.486 14.9 6.341H6.34V26.63h6.341V13.886L16.96 26.63"/><path fill="#173e7d" d="M34.957 42.84v.185c0 .739-.336.789-1.032.789-1.006 0-1.048-.36-1.048-1.3v-.982c0-.9.093-1.192 1.048-1.192.571 0 .965.042 1.024.6v.242h1.728v-.242c-.034-1.888-.839-2.064-2.566-2.064-1.846 0-2.961.3-2.961 2.382v1.631c0 2.3 1.249 2.383 2.961 2.383a2.928 2.928 0 0 0 2-.462 2.05 2.05 0 0 0 .579-1.787v-.185"/><path fill="#173e7d" fill-rule="evenodd" d="M39.667 43.403c.469 0 .788.034.788.4 0 .462-.184.536-.788.536-.219 0-.63 0-.63-.478 0-.4.278-.458.63-.458Zm.788 1.82h1.443v-2.751c0-1.518-.621-1.7-2.1-1.7-1.031 0-2.03-.008-2.03 1.358h1.443c0-.394.227-.478.587-.478.629 0 .654.26.654.671v.7h-.067c-.159-.5-.788-.495-1.2-.495-1.04 0-1.594.326-1.594 1.385 0 1.123.587 1.366 1.594 1.366.5 0 1.158-.1 1.266-.7h.05"/><path fill="#173e7d" d="M47.02 42.069v-.21c0-1.081-1.14-1.089-1.946-1.089-1.225 0-2.156.024-2.156 1.443 0 .9.326 1.308 2.156 1.308.5 0 .755 0 .755.436 0 .344-.1.386-.755.386-.352 0-.714 0-.714-.5h-1.442c0 1.452 1.014 1.427 2.156 1.427 1.158 0 2.156-.193 2.156-1.486 0-1.233-.664-1.316-2.156-1.35-.738-.016-.755-.166-.755-.385 0-.261 0-.353.755-.353.227 0 .536 0 .587.369M49.711 38.932h-1.443v6.291h1.443v-2.425c0-.536.109-.922.755-.922.47 0 .587.209.6.638v2.708h1.443v-3.04a1.236 1.236 0 0 0-1.419-1.409c-.678 0-1.107.176-1.316.872h-.063"/><path fill="#173e7d" fill-rule="evenodd" d="M60.636 43.805a2.023 2.023 0 0 1-.864.134c-.763 0-1.19.016-1.19-.83 0-.311-.018-.7.385-.747Zm1.577 1.417.747-.9-.7-.629a1.384 1.384 0 0 0 .168-.613v-1.233h-1.334v.832l-1.543-1.373a.772.772 0 0 1-.335-.622c0-.451.127-.553.554-.553.344 0 .528.025.629.134s.118.3.11.654h1.442v-.318c.018-1.518-.755-1.72-2.181-1.72-1.393 0-2.1.244-2.1 1.686a1.134 1.134 0 0 0 .478 1.066c-.956.016-1.116.847-1.116 1.644 0 1.828 1.124 2 2.735 2a2.14 2.14 0 0 0 1.862-.571"/><path fill="#173e7d" d="M70.779 42.84v.185c0 .739-.336.789-1.032.789-1.006 0-1.049-.36-1.049-1.3v-.982c0-.9.093-1.192 1.049-1.192.571 0 .965.042 1.024.6v.242h1.728v-.242c-.034-1.888-.839-2.064-2.566-2.064-1.846 0-2.961.3-2.961 2.382v1.631c0 2.3 1.249 2.383 2.961 2.383a2.927 2.927 0 0 0 2-.462 2.049 2.049 0 0 0 .579-1.787v-.185"/><path fill="#173e7d" fill-rule="evenodd" d="M75.489 43.403c.47 0 .788.034.788.4 0 .462-.184.536-.788.536-.218 0-.629 0-.629-.478 0-.4.277-.458.629-.458Zm.788 1.82h1.443v-2.751c0-1.518-.621-1.7-2.1-1.7-1.032 0-2.03-.008-2.03 1.358h1.443c0-.394.227-.478.587-.478.63 0 .654.26.654.671v.7h-.067c-.16-.5-.788-.495-1.2-.495-1.04 0-1.594.326-1.594 1.385 0 1.123.587 1.366 1.594 1.366.5 0 1.156-.1 1.266-.7h.05"/><path fill="#173e7d" d="M81.282 42.739h1.3v-.346c0-.806-.085-1.627-1.09-1.627a1.049 1.049 0 0 0-1.107.7h-.059v-.646h-1.4v4.4h1.443v-2.642c0-.361.1-.7.537-.7.394 0 .376.344.376.654M85.903 42.739h1.3v-.346c0-.806-.083-1.627-1.089-1.627a1.049 1.049 0 0 0-1.107.7h-.059v-.646h-1.4v4.4h1.442v-2.642c0-.361.1-.7.537-.7.394 0 .377.344.377.654M92.286 40.819H90.81l-.713 3.581h-.018l-.872-3.581h-1.51l1.309 4.4h.788c-.025.5-.151.948-.755.948-.083 0-.168-.009-.252-.016v1c.168.008.328.026.5.026 1.224 0 1.652-.411 1.894-1.568"/></svg>