<svg xmlns="http://www.w3.org/2000/svg" viewBox="0 0 120 36"><defs><clipPath id="a"><path fill="#fff" d="M-.128-.086h120v36h-120z" data-name="Rectangle 96"/></clipPath></defs><g clip-path="url(#a)" transform="translate(.128 .086)"><path fill="#f47524" d="M120.021 31.725a1.5 1.5 0 0 1-1.49 1.511H91.838a1.5 1.5 0 0 1-1.491-1.511V4.468a1.5 1.5 0 0 1 1.491-1.511h26.679a1.5 1.5 0 0 1 1.49 1.511Z" data-name="Path 206"/><path fill="#fff" d="M94.281 11.772h6.294a4.274 4.274 0 0 1 3.078.979 3.7 3.7 0 0 1 1.021 2.784 3.779 3.779 0 0 1-1.118 2.9 4.822 4.822 0 0 1-3.409 1.049h-2.07v4.519h-3.8Zm3.8 5.233h.939a2.412 2.412 0 0 0 1.546-.378 1.228 1.228 0 0 0 .442-.965 1.3 1.3 0 0 0-.386-.979 2.025 2.025 0 0 0-1.449-.406h-1.097v2.728Zm7.426-5.233h4.113l1.7 5.037 1.67-5.037h3.846l-4.016 9.445a15.169 15.169 0 0 1-.856 1.707 2.6 2.6 0 0 1-1.09.923 4.557 4.557 0 0 1-1.988.364c-.442 0-1.214-.07-2.305-.2v-2.514a14 14 0 0 0 1.408.1c.87 0 1.408-.322 1.6-.979Z" data-name="Path 207"/><path fill="#0f87c9" d="M77.953 30.409V21.02h-9.772v2.714a20.368 20.368 0 0 1-1.008 6.66h-1.2v5.471h2.9v-2.658h7.439v2.658h2.9v-5.466h-1.259Zm-3.6 0h-3.712a29.268 29.268 0 0 0 .814-6.226v-.154h2.9Z" data-name="Path 208"/><path fill="#0f87c9" d="M61.915 18.026a2.645 2.645 0 0 1-.966 1.693 3.154 3.154 0 0 1-3.809 0 2.58 2.58 0 0 1-.966-1.679h1.364a1.389 1.389 0 0 0 1.463 1.035 1.443 1.443 0 0 0 1.532-1.035Z" data-name="Path 209"/><path fill="#0f87c9" d="M64.551 21.02v12.2h-3.382v-6.7l-4.334 6.7h-3.423v-12.2h3.409v6.744l4.361-6.744Z" data-name="Path 210"/><path fill="#0f87c9" d="M41.626 21.02h9.648v2.6h-6.031v1.945h5.59v2.491h-5.59v2.393h6.211v2.77h-9.828Z" data-name="Path 211"/><path fill="#0f87c9" d="M38.784 21.999a4.019 4.019 0 0 0-2.94-.979h-5.99v12.2h3.611v-4.521h1.974a4.507 4.507 0 0 0 3.243-1.035 3.861 3.861 0 0 0 1.063-2.9 3.729 3.729 0 0 0-.961-2.765Zm-2.954 3.848a2.216 2.216 0 0 1-1.477.378h-.888v-2.726h1.04a1.833 1.833 0 0 1 1.38.406 1.36 1.36 0 0 1 .373.979 1.282 1.282 0 0 1-.428.964Z" data-name="Path 212"/><path fill="#0f87c9" d="M17.279 21.02h10.973v3.009h-3.685v9.193h-3.6v-9.193h-3.688Z" data-name="Path 213"/><path fill="#0f87c9" d="M67.022 2.943h3.6v4.254h3.92V2.943h3.616v12.159h-3.616v-4.925h-3.92v4.925h-3.6Z" data-name="Path 214"/><path fill="#0f87c9" d="M61.971-.037a2.524 2.524 0 0 1-.966 1.679 2.863 2.863 0 0 1-1.9.644 2.938 2.938 0 0 1-1.9-.644 2.507 2.507 0 0 1-.962-1.679h1.367A1.393 1.393 0 0 0 59.073.998a1.443 1.443 0 0 0 1.531-1.035Z" data-name="Path 215"/><path fill="#0f87c9" d="M64.607 2.943v12.159h-3.38V8.428l-4.32 6.674h-3.409V2.943h3.4v6.73l4.361-6.73Z" data-name="Path 216"/><path fill="#0f87c9" d="M47.989 2.943h-3.934L39.68 15.102h3.671l.58-2h4.071l.58 2h3.768Zm-3.294 7.527 1.265-4.368 1.27 4.366Z" data-name="Path 217"/><path fill="#0f87c9" d="M38.466 15.102h-3.589V5.937h-2.815v3.736a17.863 17.863 0 0 1-.235 3.386 2.336 2.336 0 0 1-1.09 1.6 5.772 5.772 0 0 1-2.774.5 7.266 7.266 0 0 1-1.353-.126v-2.478h.538a1.3 1.3 0 0 0 1.021-.336 1.915 1.915 0 0 0 .3-1.231V2.943h9.993Z" data-name="Path 218"/><path fill="#0f87c9" d="M14.271 2.943h3.589v4.254h3.933V2.943h3.6v12.159h-3.6v-4.925H17.86v4.925h-3.589Z" data-name="Path 219"/><path fill="#0f87c9" d="M10.751 4.37A5.959 5.959 0 0 0 6.28 2.743a5.756 5.756 0 0 0-4.417 1.669 7.321 7.321 0 0 0-1.67 5 5.619 5.619 0 0 0 .883 3.162 4.99 4.99 0 0 0 2.084 2.069 7.193 7.193 0 0 0 3.257.658 6.25 6.25 0 0 0 3.23-.758 4.982 4.982 0 0 0 1.987-2.127 7.79 7.79 0 0 0 .69-3.5 6.367 6.367 0 0 0-1.573-4.546Zm-2.663 7.332a2.2 2.2 0 0 1-1.794.784 2.141 2.141 0 0 1-1.78-.8 4.252 4.252 0 0 1-.65-2.643 4.2 4.2 0 0 1 .662-2.658 2.134 2.134 0 0 1 1.753-.8 2.2 2.2 0 0 1 1.794.8 3.867 3.867 0 0 1 .663 2.5 4.672 4.672 0 0 1-.648 2.817Z" data-name="Path 220"/><path fill="#0f87c9" fill-rule="evenodd" d="M84.247 16.068a1.987 1.987 0 1 1-1.96 1.987 1.981 1.981 0 0 1 1.96-1.987Z" data-name="Path 221"/><path fill="#0f87c9" fill-rule="evenodd" d="M84.249 13.941a2.564 2.564 0 0 1 1.118.252V3.573c0-.574-.456-.616-1.021-.616h-.207c-.565 0-1.021.042-1.021.616v10.62a2.667 2.667 0 0 1 1.131-.252Z" data-name="Path 222"/><path fill="#0f87c9" fill-rule="evenodd" d="M84.247 22.238a2.562 2.562 0 0 1-1.118-.252v10.592c0 .574.455.644 1.021.644h.207c.565 0 1.021-.084 1.021-.644V21.986a2.667 2.667 0 0 1-1.131.252Z" data-name="Path 223"/></g></svg>