<svg xmlns="http://www.w3.org/2000/svg" viewBox="0 0 130.029 39.701"><g data-name="Group 119"><g fill="#1a1818" data-name="Group 1"><path d="M27.901 38.736a.333.333 0 0 1-.252-.093.365.365 0 0 1-.089-.263v-4.344h-2.2v1.166a8.674 8.674 0 0 1-.086 1.3 4.32 4.32 0 0 1-.252.973 2.648 2.648 0 0 1-.416.709 2.355 2.355 0 0 1-.576.5.317.317 0 0 1-.252.063.329.329 0 0 1-.208-.145.3.3 0 0 1-.056-.252.38.38 0 0 1 .167-.208 1.819 1.819 0 0 0 .446-.39 2.06 2.06 0 0 0 .326-.59 3.979 3.979 0 0 0 .2-.88 10.147 10.147 0 0 0 .066-1.251v-1.2a.372.372 0 0 1 .1-.275.382.382 0 0 1 .282-.1h2.769a.384.384 0 0 1 .283.1.371.371 0 0 1 .1.275v4.559a.365.365 0 0 1-.089.263.346.346 0 0 1-.263.083Z" data-name="Path 1"/><path d="M29.764 38.736a.355.355 0 0 1-.167-.037.239.239 0 0 1-.108-.119.5.5 0 0 1-.037-.208v-3.03a.333.333 0 0 1 .082-.241.3.3 0 0 1 .23-.086.292.292 0 0 1 .223.086.334.334 0 0 1 .082.241v2.681h-.193l2.094-2.792a.692.692 0 0 1 .149-.149.386.386 0 0 1 .237-.067.349.349 0 0 1 .171.037.23.23 0 0 1 .1.115.522.522 0 0 1 .034.2v3.037a.347.347 0 0 1-.078.237.276.276 0 0 1-.219.089.294.294 0 0 1-.234-.089.347.347 0 0 1-.078-.237v-2.688h.193l-2.094 2.8a.71.71 0 0 1-.149.148.387.387 0 0 1-.238.072Z" data-name="Path 2"/><path d="M36.462 38.736a.322.322 0 0 1-.249-.093.376.376 0 0 1-.085-.263v-1.121a1.77 1.77 0 0 1-.442.178 1.957 1.957 0 0 1-.486.059 1.572 1.572 0 0 1-1.158-.375 1.547 1.547 0 0 1-.371-1.132v-.632a.345.345 0 0 1 .086-.255.335.335 0 0 1 .249-.086.347.347 0 0 1 .252.086.337.337 0 0 1 .089.255v.579a1.085 1.085 0 0 0 .223.758.95.95 0 0 0 .72.237 1.7 1.7 0 0 0 .456-.052 1.234 1.234 0 0 0 .379-.182v-1.322q0-.356.341-.356a.328.328 0 0 1 .249.089.371.371 0 0 1 .086.267v3.008a.384.384 0 0 1-.082.263.319.319 0 0 1-.257.09Z" data-name="Path 3"/><path d="M38.296 38.736a.341.341 0 0 1-.252-.089.351.351 0 0 1-.089-.26v-3.03a.337.337 0 0 1 .089-.255.347.347 0 0 1 .252-.086.335.335 0 0 1 .249.086.347.347 0 0 1 .086.255v1.2h1.886v-1.2a.345.345 0 0 1 .086-.255.334.334 0 0 1 .249-.086.348.348 0 0 1 .252.086.337.337 0 0 1 .089.255v3.03a.351.351 0 0 1-.089.26.341.341 0 0 1-.252.089.328.328 0 0 1-.249-.089.36.36 0 0 1-.086-.26v-1.292h-1.886v1.292a.371.371 0 0 1-.082.26.327.327 0 0 1-.253.089Z" data-name="Path 4"/><path d="M42.699 38.679a.313.313 0 0 1-.349-.349v-2.978a.337.337 0 0 1 .089-.255.347.347 0 0 1 .252-.086.335.335 0 0 1 .249.086.347.347 0 0 1 .086.255v.98h1.062a1.6 1.6 0 0 1 1.054.3 1.069 1.069 0 0 1 .356.865 1.149 1.149 0 0 1-.167.624 1.086 1.086 0 0 1-.482.412 1.818 1.818 0 0 1-.761.145Zm.327-.468h.98a1 1 0 0 0 .631-.175.642.642 0 0 0 .222-.539.625.625 0 0 0-.222-.527 1.021 1.021 0 0 0-.631-.17h-.98Zm3.326.519a.342.342 0 0 1-.252-.089.351.351 0 0 1-.089-.26v-3.03a.337.337 0 0 1 .089-.255.348.348 0 0 1 .252-.086.3.3 0 0 1 .334.341v3.03q0 .355-.334.355Z" data-name="Path 5"/><path d="M48.151 38.736a.355.355 0 0 1-.167-.037.238.238 0 0 1-.108-.119.5.5 0 0 1-.037-.207v-3.03a.333.333 0 0 1 .082-.241.3.3 0 0 1 .23-.085.292.292 0 0 1 .223.085.335.335 0 0 1 .082.241v2.68h-.193l2.094-2.791a.7.7 0 0 1 .148-.149.386.386 0 0 1 .237-.067.35.35 0 0 1 .171.037.229.229 0 0 1 .1.115.522.522 0 0 1 .034.2v3.037a.347.347 0 0 1-.078.237.275.275 0 0 1-.219.089.3.3 0 0 1-.234-.089.347.347 0 0 1-.078-.237v-2.688h.193l-2.094 2.8a.717.717 0 0 1-.149.149.387.387 0 0 1-.237.07Zm1.292-4.128a1.4 1.4 0 0 1-.743-.2 1.185 1.185 0 0 1-.49-.613.243.243 0 0 1-.011-.189.191.191 0 0 1 .123-.108.2.2 0 0 1 .16.007.3.3 0 0 1 .122.149.955.955 0 0 0 .338.4.991.991 0 0 0 1.006 0 .967.967 0 0 0 .334-.4.351.351 0 0 1 .126-.149.187.187 0 0 1 .156-.007.191.191 0 0 1 .123.108.231.231 0 0 1-.019.189 1.277 1.277 0 0 1-1.225.817Z" data-name="Path 6"/><path d="M54.49 38.736a.342.342 0 0 1-.252-.089.35.35 0 0 1-.089-.26v-2.933a.35.35 0 0 1 .386-.386h2.443a.35.35 0 0 1 .386.386v2.933a.352.352 0 0 1-.089.26.342.342 0 0 1-.253.089.328.328 0 0 1-.248-.089.359.359 0 0 1-.086-.26V35.61h-1.863v2.777a.371.371 0 0 1-.082.26.328.328 0 0 1-.253.089Z" data-name="Path 7"/><path d="M60.058 38.75a1.806 1.806 0 0 1-.928-.23 1.555 1.555 0 0 1-.609-.653 2.171 2.171 0 0 1-.215-1 2.311 2.311 0 0 1 .122-.776 1.663 1.663 0 0 1 .353-.59 1.528 1.528 0 0 1 .553-.375 1.914 1.914 0 0 1 .724-.13 1.8 1.8 0 0 1 .928.23 1.559 1.559 0 0 1 .609.649 2.147 2.147 0 0 1 .215.991 2.344 2.344 0 0 1-.123.78 1.663 1.663 0 0 1-.353.594 1.535 1.535 0 0 1-.553.375 1.932 1.932 0 0 1-.723.135Zm0-.534a1.024 1.024 0 0 0 .568-.156 1 1 0 0 0 .371-.453 1.831 1.831 0 0 0 .13-.735 1.5 1.5 0 0 0-.29-.995.97.97 0 0 0-.78-.341 1.024 1.024 0 0 0-.561.152 1 1 0 0 0-.375.449 1.788 1.788 0 0 0-.134.735 1.5 1.5 0 0 0 .293 1 .967.967 0 0 0 .778.344Z" data-name="Path 8"/><path d="M64.327 38.75a1.847 1.847 0 0 1-.95-.234 1.551 1.551 0 0 1-.616-.66 2.2 2.2 0 0 1-.216-1.006 2.277 2.277 0 0 1 .123-.772 1.629 1.629 0 0 1 .353-.583 1.507 1.507 0 0 1 .561-.367 2.081 2.081 0 0 1 .746-.126 2.03 2.03 0 0 1 .549.082 1.6 1.6 0 0 1 .535.267.264.264 0 0 1 .1.138.32.32 0 0 1 0 .16.275.275 0 0 1-.074.137.218.218 0 0 1-.141.063.3.3 0 0 1-.182-.052 1.2 1.2 0 0 0-.375-.193 1.3 1.3 0 0 0-.375-.059 1.241 1.241 0 0 0-.487.089.96.96 0 0 0-.357.256 1.113 1.113 0 0 0-.218.409 1.89 1.89 0 0 0-.075.56 1.515 1.515 0 0 0 .3.992 1.026 1.026 0 0 0 .839.36 1.326 1.326 0 0 0 .371-.056 1.233 1.233 0 0 0 .379-.189.273.273 0 0 1 .178-.048.232.232 0 0 1 .138.067.256.256 0 0 1 .071.134.324.324 0 0 1-.011.16.248.248 0 0 1-.108.134 1.6 1.6 0 0 1-.52.26 1.955 1.955 0 0 1-.538.077Z" data-name="Path 9"/><path d="M67.394 38.736a.343.343 0 0 1-.253-.089.352.352 0 0 1-.089-.26V35.61h-1.054q-.3 0-.3-.275a.244.244 0 0 1 .082-.2.317.317 0 0 1 .215-.071h2.777q.3 0 .3.267a.26.26 0 0 1-.078.2.326.326 0 0 1-.227.071H67.72v2.777a.361.361 0 0 1-.085.26.329.329 0 0 1-.241.097Z" data-name="Path 10"/><path d="M70.787 38.75a1.5 1.5 0 0 1-.672-.149 1.161 1.161 0 0 1-.468-.4 1 1 0 0 1-.167-.564.928.928 0 0 1 .2-.631 1.2 1.2 0 0 1 .676-.33 6.453 6.453 0 0 1 1.277-.1h.349v.43h-.334a6.131 6.131 0 0 0-.9.052.86.86 0 0 0-.464.182.479.479 0 0 0-.134.36.611.611 0 0 0 .2.475.8.8 0 0 0 .56.186.908.908 0 0 0 .5-.137.989.989 0 0 0 .341-.371 1.112 1.112 0 0 0 .127-.538v-.854a.927.927 0 0 0-.179-.634.778.778 0 0 0-.6-.2 2.025 2.025 0 0 0-.5.067 2.77 2.77 0 0 0-.542.208.3.3 0 0 1-.193.033.207.207 0 0 1-.13-.089.294.294 0 0 1-.052-.156.331.331 0 0 1 .037-.167.244.244 0 0 1 .145-.119 2.788 2.788 0 0 1 .65-.234 2.853 2.853 0 0 1 .605-.07 1.807 1.807 0 0 1 .795.152 1 1 0 0 1 .468.467 1.818 1.818 0 0 1 .156.805v1.961a.371.371 0 0 1-.081.26.357.357 0 0 1-.472 0 .362.362 0 0 1-.085-.26v-.527h.067a1.122 1.122 0 0 1-.223.475 1.087 1.087 0 0 1-.4.308 1.331 1.331 0 0 1-.557.109Z" data-name="Path 11"/><path d="M74.024 38.684a.312.312 0 0 1-.349-.349v-2.918a.313.313 0 0 1 .349-.349h1.455a1.958 1.958 0 0 1 .717.111.84.84 0 0 1 .412.32.941.941 0 0 1 .134.52.79.79 0 0 1-.237.579 1.017 1.017 0 0 1-.624.282v-.1a1.052 1.052 0 0 1 .72.263.841.841 0 0 1 .26.635.885.885 0 0 1-.342.731 1.547 1.547 0 0 1-.98.271Zm.29-2.064h1.129a.737.737 0 0 0 .494-.149.507.507 0 0 0 .174-.408.493.493 0 0 0-.174-.408.766.766 0 0 0-.494-.141h-1.129Zm0 1.619h1.188a.853.853 0 0 0 .546-.152.6.6 0 0 0 0-.872.869.869 0 0 0-.546-.149h-1.188Z" data-name="Path 12"/><path d="M82.89 39.701a.265.265 0 0 1-.289-.3v-.721h-4.477a.313.313 0 0 1-.349-.349v-2.978a.345.345 0 0 1 .086-.255.313.313 0 0 1 .234-.086.322.322 0 0 1 .245.086.356.356 0 0 1 .082.255v2.784h1.448v-2.784a.345.345 0 0 1 .085-.255.313.313 0 0 1 .234-.086.322.322 0 0 1 .245.086.356.356 0 0 1 .082.255v2.784h1.448v-2.784a.345.345 0 0 1 .085-.255.313.313 0 0 1 .234-.086.325.325 0 0 1 .242.086.347.347 0 0 1 .086.255v3.1l-.312-.312h.557a.3.3 0 0 1 .327.327v.936a.259.259 0 0 1-.293.297Z" data-name="Path 13"/><path d="M84.27 38.736a.355.355 0 0 1-.167-.037.239.239 0 0 1-.108-.119.5.5 0 0 1-.037-.208v-3.03a.333.333 0 0 1 .082-.241.3.3 0 0 1 .23-.086.292.292 0 0 1 .223.086.334.334 0 0 1 .082.241v2.681h-.193l2.094-2.792a.691.691 0 0 1 .149-.149.385.385 0 0 1 .237-.067.349.349 0 0 1 .171.037.228.228 0 0 1 .1.115.522.522 0 0 1 .034.2v3.037a.347.347 0 0 1-.078.237.276.276 0 0 1-.219.089.294.294 0 0 1-.234-.089.347.347 0 0 1-.078-.237v-2.688h.193l-2.094 2.8a.71.71 0 0 1-.149.148.387.387 0 0 1-.238.072Z" data-name="Path 14"/><path d="M88.666 38.736a.341.341 0 0 1-.252-.089.351.351 0 0 1-.089-.259v-3.015a.31.31 0 0 1 .341-.341.328.328 0 0 1 .249.089.35.35 0 0 1 .086.252v1.181h.638l1.069-1.374a.314.314 0 0 1 .171-.13.341.341 0 0 1 .186 0 .288.288 0 0 1 .148.1.263.263 0 0 1 .059.17.327.327 0 0 1-.082.2l-1.01 1.314-.17-.208a1 1 0 0 1 .356.1 1.022 1.022 0 0 1 .3.245 3.177 3.177 0 0 1 .3.438l.5.862a.294.294 0 0 1 .048.208.279.279 0 0 1-.089.16.346.346 0 0 1-.167.082.33.33 0 0 1-.193-.022.353.353 0 0 1-.164-.152l-.564-.95a1.6 1.6 0 0 0-.23-.312.625.625 0 0 0-.245-.156 1.037 1.037 0 0 0-.326-.045h-.542v1.3a.362.362 0 0 1-.086.259.329.329 0 0 1-.242.093Z" data-name="Path 15"/><path d="M94.569 38.736a.342.342 0 0 1-.252-.089.352.352 0 0 1-.089-.26v-2.933a.35.35 0 0 1 .386-.386h2.443a.35.35 0 0 1 .386.386v2.933a.352.352 0 0 1-.089.26.344.344 0 0 1-.253.089.329.329 0 0 1-.249-.089.361.361 0 0 1-.085-.26V35.61h-1.864v2.777a.373.373 0 0 1-.082.26.328.328 0 0 1-.252.089Z" data-name="Path 16"/><path d="M100.138 38.75a1.805 1.805 0 0 1-.928-.23 1.553 1.553 0 0 1-.609-.653 2.171 2.171 0 0 1-.216-1 2.312 2.312 0 0 1 .123-.776 1.662 1.662 0 0 1 .353-.59 1.529 1.529 0 0 1 .553-.375 1.914 1.914 0 0 1 .724-.13 1.8 1.8 0 0 1 .928.23 1.556 1.556 0 0 1 .609.649 2.147 2.147 0 0 1 .216.991 2.344 2.344 0 0 1-.123.78 1.664 1.664 0 0 1-.353.594 1.536 1.536 0 0 1-.553.375 1.929 1.929 0 0 1-.724.135Zm0-.534a1.024 1.024 0 0 0 .568-.156 1 1 0 0 0 .371-.453 1.832 1.832 0 0 0 .13-.735 1.5 1.5 0 0 0-.289-.995.97.97 0 0 0-.78-.341 1.023 1.023 0 0 0-.561.152 1 1 0 0 0-.375.449 1.788 1.788 0 0 0-.134.735 1.5 1.5 0 0 0 .293 1 .967.967 0 0 0 .777.344Z" data-name="Path 17"/><path d="M105.573 38.736a.342.342 0 0 1-.252-.089.352.352 0 0 1-.09-.26V35.61h-1.381v.446a7.463 7.463 0 0 1-.059 1 3.382 3.382 0 0 1-.182.754 1.671 1.671 0 0 1-.319.535 1.511 1.511 0 0 1-.487.349.338.338 0 0 1-.208.034.289.289 0 0 1-.159-.085.315.315 0 0 1-.082-.156.289.289 0 0 1 .019-.178.307.307 0 0 1 .148-.149 1.124 1.124 0 0 0 .342-.293 1.344 1.344 0 0 0 .211-.427 3.015 3.015 0 0 0 .111-.594q.033-.341.034-.8v-.587a.35.35 0 0 1 .386-.386h1.923a.373.373 0 0 1 .282.1.394.394 0 0 1 .1.286v2.933a.352.352 0 0 1-.089.26.333.333 0 0 1-.248.084Z" data-name="Path 18"/><path d="M108.735 38.75a2.081 2.081 0 0 1-1.006-.227 1.579 1.579 0 0 1-.65-.646 2.025 2.025 0 0 1-.231-.992 2.067 2.067 0 0 1 .227-.987 1.676 1.676 0 0 1 .624-.66 1.739 1.739 0 0 1 .91-.238 1.683 1.683 0 0 1 .657.123 1.389 1.389 0 0 1 .5.352 1.534 1.534 0 0 1 .315.561 2.4 2.4 0 0 1 .107.746.231.231 0 0 1-.07.182.3.3 0 0 1-.2.063h-2.546v-.43h2.369l-.127.1a1.683 1.683 0 0 0-.115-.657.887.887 0 0 0-.334-.412.987.987 0 0 0-.546-.141 1.077 1.077 0 0 0-.609.167 1.063 1.063 0 0 0-.386.467 1.7 1.7 0 0 0-.134.694v.044a1.431 1.431 0 0 0 .319 1.01 1.2 1.2 0 0 0 .921.342 2.085 2.085 0 0 0 .486-.06 1.452 1.452 0 0 0 .479-.215.371.371 0 0 1 .2-.063.226.226 0 0 1 .152.059.244.244 0 0 1 .074.134.292.292 0 0 1-.022.167.346.346 0 0 1-.141.156 1.88 1.88 0 0 1-.582.263 2.462 2.462 0 0 1-.641.098Z" data-name="Path 19"/><path d="M112.337 38.75a3.253 3.253 0 0 1-.743-.085 2.041 2.041 0 0 1-.624-.249.31.31 0 0 1-.145-.134.3.3 0 0 1-.033-.164.231.231 0 0 1 .063-.141.228.228 0 0 1 .141-.071.366.366 0 0 1 .2.048 1.894 1.894 0 0 0 .535.212 2.569 2.569 0 0 0 .594.071 1.39 1.39 0 0 0 .742-.149.541.541 0 0 0 .037-.846.855.855 0 0 0-.527-.141h-.649a.29.29 0 0 1-.2-.071.233.233 0 0 1-.078-.182.23.23 0 0 1 .078-.185.3.3 0 0 1 .2-.067h.572a.8.8 0 0 0 .494-.138.452.452 0 0 0 .182-.382.489.489 0 0 0-.2-.412 1.105 1.105 0 0 0-.66-.153 2.312 2.312 0 0 0-.549.063 2.249 2.249 0 0 0-.5.189.311.311 0 0 1-.241.041.237.237 0 0 1-.145-.126.249.249 0 0 1-.011-.193.28.28 0 0 1 .152-.16 2.4 2.4 0 0 1 .653-.249 3.359 3.359 0 0 1 .735-.078 1.71 1.71 0 0 1 1.047.267.892.892 0 0 1 .349.75.8.8 0 0 1-.234.579 1.008 1.008 0 0 1-.628.282v-.1a1.106 1.106 0 0 1 .724.256.818.818 0 0 1 .271.642.913.913 0 0 1-.4.776 2.016 2.016 0 0 1-1.202.3Z" data-name="Path 20"/><path d="M115.18 38.736a.341.341 0 0 1-.252-.089.351.351 0 0 1-.089-.26v-3.03a.337.337 0 0 1 .089-.255.347.347 0 0 1 .252-.086.335.335 0 0 1 .249.086.347.347 0 0 1 .086.255v1.2h1.886v-1.2a.345.345 0 0 1 .086-.255.334.334 0 0 1 .249-.086.348.348 0 0 1 .252.086.337.337 0 0 1 .089.255v3.03a.351.351 0 0 1-.089.26.341.341 0 0 1-.252.089.327.327 0 0 1-.249-.089.36.36 0 0 1-.086-.26v-1.292h-1.883v1.292a.372.372 0 0 1-.082.26.328.328 0 0 1-.256.089Z" data-name="Path 21"/><path d="M120.77 38.75a1.806 1.806 0 0 1-.928-.23 1.555 1.555 0 0 1-.609-.653 2.17 2.17 0 0 1-.215-1 2.312 2.312 0 0 1 .122-.776 1.663 1.663 0 0 1 .353-.59 1.528 1.528 0 0 1 .553-.375 1.914 1.914 0 0 1 .724-.13 1.8 1.8 0 0 1 .928.23 1.559 1.559 0 0 1 .609.649 2.147 2.147 0 0 1 .215.991 2.343 2.343 0 0 1-.123.78 1.663 1.663 0 0 1-.353.594 1.534 1.534 0 0 1-.553.375 1.932 1.932 0 0 1-.723.135Zm0-.534a1.024 1.024 0 0 0 .568-.156.994.994 0 0 0 .371-.453 1.831 1.831 0 0 0 .13-.735 1.5 1.5 0 0 0-.29-.995.97.97 0 0 0-.78-.341 1.024 1.024 0 0 0-.561.152 1 1 0 0 0-.375.449 1.789 1.789 0 0 0-.134.735 1.5 1.5 0 0 0 .293 1 .967.967 0 0 0 .778.344Z" data-name="Path 22"/><path d="M123.814 38.736a.333.333 0 0 1-.252-.093.364.364 0 0 1-.089-.263v-2.926a.35.35 0 0 1 .386-.386h1.945a.337.337 0 0 1 .23.067.256.256 0 0 1 .074.2.268.268 0 0 1-.074.2.324.324 0 0 1-.23.071h-1.655v2.77q0 .36-.335.36Z" data-name="Path 23"/><path d="M128.277 38.75a1.8 1.8 0 0 1-.928-.23 1.556 1.556 0 0 1-.609-.653 2.17 2.17 0 0 1-.215-1 2.31 2.31 0 0 1 .123-.776 1.662 1.662 0 0 1 .353-.59 1.527 1.527 0 0 1 .553-.375 1.916 1.916 0 0 1 .724-.13 1.8 1.8 0 0 1 .928.23 1.559 1.559 0 0 1 .609.649 2.147 2.147 0 0 1 .215.991 2.343 2.343 0 0 1-.122.78 1.669 1.669 0 0 1-.353.594 1.539 1.539 0 0 1-.553.375 1.93 1.93 0 0 1-.725.135Zm0-.534a1.025 1.025 0 0 0 .568-.156 1 1 0 0 0 .371-.453 1.824 1.824 0 0 0 .13-.735 1.5 1.5 0 0 0-.289-.995.971.971 0 0 0-.78-.341 1.022 1.022 0 0 0-.56.152.994.994 0 0 0-.375.449 1.782 1.782 0 0 0-.134.735 1.5 1.5 0 0 0 .293 1 .968.968 0 0 0 .776.344Z" data-name="Path 24"/></g><g data-name="Group 118"><g data-name="Group 2"><path fill="#c8524d" d="M124.452 30.219H72.671a5.585 5.585 0 0 1-5.578-5.578V5.578A5.584 5.584 0 0 1 72.671 0h51.781a5.584 5.584 0 0 1 5.578 5.578v19.063a5.584 5.584 0 0 1-5.578 5.578ZM72.671 1.564a4.019 4.019 0 0 0-4.015 4.015v19.063a4.02 4.02 0 0 0 4.015 4.015h51.781a4.019 4.019 0 0 0 4.014-4.015V5.579a4.019 4.019 0 0 0-4.014-4.015Z" data-name="Path 25"/></g><g fill="#262626" data-name="Group 3"><path d="M.897 21.045a.879.879 0 0 1-.665-.239.959.959 0 0 1-.234-.692V7.946a.926.926 0 0 1 .234-.682.9.9 0 0 1 .663-.234.82.82 0 0 1 .916.916v5.263h2.573l-.487.331 3.957-6.043a.961.961 0 0 1 .458-.39.917.917 0 0 1 .526-.039.9.9 0 0 1 .449.244.689.689 0 0 1 .2.448.964.964 0 0 1-.175.575l-3.684 5.517-.682-.566a3.938 3.938 0 0 1 2.047.868 5.967 5.967 0 0 1 1.482 1.959l1.793 3.665a.9.9 0 0 1 .107.623.778.778 0 0 1-.283.439.9.9 0 0 1-.5.185.959.959 0 0 1-.965-.565L6.95 16.893a3.969 3.969 0 0 0-1.267-1.637 3.1 3.1 0 0 0-1.773-.487H1.813v5.341a.986.986 0 0 1-.224.692.9.9 0 0 1-.692.243Z" data-name="Path 26"/><path d="M16.412 21.084a4.741 4.741 0 0 1-2.437-.6 4.078 4.078 0 0 1-1.6-1.715 5.687 5.687 0 0 1-.565-2.612 6.058 6.058 0 0 1 .322-2.036 4.354 4.354 0 0 1 .926-1.55 4.025 4.025 0 0 1 1.452-.984 5.053 5.053 0 0 1 1.9-.341 4.744 4.744 0 0 1 2.437.6 4.1 4.1 0 0 1 1.6 1.706 5.63 5.63 0 0 1 .565 2.6 6.148 6.148 0 0 1-.322 2.047 4.35 4.35 0 0 1-.926 1.559 4.029 4.029 0 0 1-1.452.985 5.058 5.058 0 0 1-1.9.341Zm0-1.4a2.689 2.689 0 0 0 1.491-.409 2.621 2.621 0 0 0 .974-1.189 4.815 4.815 0 0 0 .341-1.93 3.938 3.938 0 0 0-.76-2.612 2.545 2.545 0 0 0-2.047-.9 2.7 2.7 0 0 0-1.472.4 2.617 2.617 0 0 0-.984 1.179 4.7 4.7 0 0 0-.351 1.929 3.942 3.942 0 0 0 .77 2.622 2.539 2.539 0 0 0 2.038.906Z" data-name="Path 27"/><path d="M24.404 21.045a.9.9 0 0 1-.663-.234.924.924 0 0 1-.234-.682v-7.952a.891.891 0 0 1 .234-.673.92.92 0 0 1 .663-.224.886.886 0 0 1 .653.224.915.915 0 0 1 .224.673v3.138h4.951v-3.138a.913.913 0 0 1 .224-.673.885.885 0 0 1 .653-.224.921.921 0 0 1 .663.224.892.892 0 0 1 .234.673v7.952a.925.925 0 0 1-.234.682.9.9 0 0 1-.663.234.862.862 0 0 1-.653-.234.947.947 0 0 1-.224-.682v-3.391h-4.951v3.391a.977.977 0 0 1-.214.682.858.858 0 0 1-.663.234Z" data-name="Path 28"/><path d="M37.93 21.044a.9.9 0 0 1-.663-.234.924.924 0 0 1-.234-.682v-7.29h-2.768q-.78 0-.78-.721a.646.646 0 0 1 .214-.516.836.836 0 0 1 .566-.185h7.29q.8 0 .8.7a.685.685 0 0 1-.2.536.855.855 0 0 1-.594.185h-2.749v7.29a.95.95 0 0 1-.224.682.863.863 0 0 1-.658.235Z" data-name="Path 29"/><path d="M46.06 24.554a.8.8 0 0 1-.517-.166.636.636 0 0 1-.234-.448 1.167 1.167 0 0 1 .107-.594l1.326-3v.741l-3.684-8.577a1.158 1.158 0 0 1-.1-.6.671.671 0 0 1 .263-.448.971.971 0 0 1 .614-.175.821.821 0 0 1 .526.156 1.474 1.474 0 0 1 .37.546l3.06 7.543h-.546l3.119-7.543a1.219 1.219 0 0 1 .37-.546.98.98 0 0 1 .585-.156.722.722 0 0 1 .517.175.745.745 0 0 1 .224.448.988.988 0 0 1-.117.585l-4.912 11.364a1.438 1.438 0 0 1-.4.556.977.977 0 0 1-.571.139Z" data-name="Path 30"/><path d="M55.046 24.554a.869.869 0 0 1-.643-.234.9.9 0 0 1-.234-.662V12.177a.925.925 0 0 1 1.53-.672.914.914 0 0 1 .224.672v1.774l-.215-.351a3.093 3.093 0 0 1 1.228-1.715 3.731 3.731 0 0 1 2.2-.644 3.852 3.852 0 0 1 3.665 2.29 6.036 6.036 0 0 1 .526 2.622 6.213 6.213 0 0 1-.516 2.622 3.886 3.886 0 0 1-1.462 1.716 4.067 4.067 0 0 1-2.212.594 3.7 3.7 0 0 1-2.183-.644 3.1 3.1 0 0 1-1.228-1.7h.215v4.912a.815.815 0 0 1-.9.9Zm3.684-4.874a2.653 2.653 0 0 0 1.472-.409 2.68 2.68 0 0 0 .984-1.189 4.7 4.7 0 0 0 .351-1.93 3.938 3.938 0 0 0-.76-2.612 2.545 2.545 0 0 0-2.047-.9 2.739 2.739 0 0 0-1.491.4 2.557 2.557 0 0 0-.975 1.179 4.81 4.81 0 0 0-.341 1.929 3.977 3.977 0 0 0 .76 2.622 2.533 2.533 0 0 0 2.047.91Z" data-name="Path 31"/></g><g fill="#c8524d" data-name="Group 4"><path d="M86.68 21.045a.876.876 0 0 1-.663-.244.958.958 0 0 1-.234-.692v-11.4h-5.77v3.06a22.9 22.9 0 0 1-.224 3.4 11.39 11.39 0 0 1-.663 2.553 6.92 6.92 0 0 1-1.091 1.862 6.173 6.173 0 0 1-1.51 1.306.83.83 0 0 1-.663.165.863.863 0 0 1-.546-.38.789.789 0 0 1-.146-.663.992.992 0 0 1 .439-.546 4.753 4.753 0 0 0 1.17-1.023 5.4 5.4 0 0 0 .857-1.55 10.426 10.426 0 0 0 .526-2.31 26.507 26.507 0 0 0 .175-3.285V8.14a.976.976 0 0 1 .253-.721 1 1 0 0 1 .741-.253h7.27a1 1 0 0 1 .741.253.976.976 0 0 1 .253.721v11.969a.958.958 0 0 1-.234.692.9.9 0 0 1-.681.244Z" data-name="Path 32"/><path d="M93.776 21.084a3.933 3.933 0 0 1-1.765-.39 3.055 3.055 0 0 1-1.228-1.053 2.622 2.622 0 0 1-.439-1.481 2.437 2.437 0 0 1 .526-1.657 3.157 3.157 0 0 1 1.773-.867 16.933 16.933 0 0 1 3.353-.263h.916v1.131h-.877a16.011 16.011 0 0 0-2.368.137 2.256 2.256 0 0 0-1.218.477 1.258 1.258 0 0 0-.351.945 1.611 1.611 0 0 0 .536 1.248 2.107 2.107 0 0 0 1.471.487 2.375 2.375 0 0 0 1.306-.361 2.594 2.594 0 0 0 .9-.975 2.925 2.925 0 0 0 .332-1.414v-2.241a2.447 2.447 0 0 0-.468-1.667 2.052 2.052 0 0 0-1.579-.516 5.334 5.334 0 0 0-1.325.175 7.25 7.25 0 0 0-1.423.546.792.792 0 0 1-.507.088.546.546 0 0 1-.341-.234.769.769 0 0 1-.136-.409.878.878 0 0 1 .1-.439.643.643 0 0 1 .38-.312 7.33 7.33 0 0 1 1.706-.614 7.477 7.477 0 0 1 1.589-.185 4.755 4.755 0 0 1 2.086.4 2.62 2.62 0 0 1 1.228 1.228 4.774 4.774 0 0 1 .409 2.115v5.146a.975.975 0 0 1-.214.682.935.935 0 0 1-1.238 0 .947.947 0 0 1-.224-.682v-1.386h.175a2.918 2.918 0 0 1-.585 1.247 2.841 2.841 0 0 1-1.062.809 3.49 3.49 0 0 1-1.438.285Z" data-name="Path 33"/><path d="M102.176 21.045a.928.928 0 0 1-.438-.1.63.63 0 0 1-.283-.312 1.326 1.326 0 0 1-.1-.546v-7.953a.88.88 0 0 1 .215-.634.8.8 0 0 1 .6-.224.771.771 0 0 1 .585.224.88.88 0 0 1 .215.634v7.036h-.507l5.5-7.329a1.849 1.849 0 0 1 .39-.39 1.016 1.016 0 0 1 .624-.176.917.917 0 0 1 .449.1.607.607 0 0 1 .263.3 1.371 1.371 0 0 1 .088.536v7.972a.913.913 0 0 1-.2.624.724.724 0 0 1-.575.234.773.773 0 0 1-.614-.234.913.913 0 0 1-.2-.624v-7.056h.507l-5.5 7.349a1.872 1.872 0 0 1-.39.39 1.017 1.017 0 0 1-.629.179Zm3.392-10.838a3.662 3.662 0 0 1-1.949-.536 3.114 3.114 0 0 1-1.287-1.608.643.643 0 0 1-.029-.5.5.5 0 0 1 .322-.283.519.519 0 0 1 .419.02.806.806 0 0 1 .322.39 2.493 2.493 0 0 0 .887 1.062 2.6 2.6 0 0 0 2.641 0 2.528 2.528 0 0 0 .877-1.062.93.93 0 0 1 .331-.39.493.493 0 0 1 .409-.02.5.5 0 0 1 .322.283.6.6 0 0 1-.048.5 3.507 3.507 0 0 1-1.306 1.608 3.468 3.468 0 0 1-1.912.536Z" data-name="Path 34"/><path d="M113.715 21.045a.9.9 0 0 1-.663-.234.924.924 0 0 1-.234-.682v-7.952a.891.891 0 0 1 .234-.673.921.921 0 0 1 .663-.224.885.885 0 0 1 .653.224.914.914 0 0 1 .224.673v3.138h4.951v-3.138a.913.913 0 0 1 .225-.673.883.883 0 0 1 .653-.224.921.921 0 0 1 .663.224.891.891 0 0 1 .234.673v7.952a.924.924 0 0 1-.234.682.9.9 0 0 1-.663.234.86.86 0 0 1-.653-.234.947.947 0 0 1-.225-.682v-3.391h-4.951v3.391a.975.975 0 0 1-.214.682.857.857 0 0 1-.663.234Z" data-name="Path 35"/></g></g></g></svg>