<svg xmlns="http://www.w3.org/2000/svg" viewBox="0 0 22 22"><path fill="#2cb5f5" fill-rule="evenodd" d="M22 11A11 11 0 1 1 11 0a11 11 0 0 1 11 11ZM11.394 8.12q-3.217 1.361-6.415 2.764-.78.31-.818.608c-.042.334.377.466.948.646l.24.076a7.874 7.874 0 0 0 1.71.4 2.094 2.094 0 0 0 1.193-.44q4.494-3.034 4.64-3.068a.256.256 0 0 1 .228.022.226.226 0 0 1 .051.195 30.961 30.961 0 0 1-2.539 2.5c-.265.246-.453.421-.492.462q-.127.13-.258.255c-.522.5-.914.88.021 1.5.45.3.809.541 1.167.785.392.267.783.533 1.288.864.129.085.252.172.371.258a2.092 2.092 0 0 0 1.372.57c.293-.027.6-.3.751-1.128.365-1.948 1.081-6.169 1.247-7.908a1.943 1.943 0 0 0-.019-.433.464.464 0 0 0-.156-.3.723.723 0 0 0-.427-.128c-.413.007-1.048.228-4.1 1.5Z" data-name="Path 261"/></svg>