<svg xmlns="http://www.w3.org/2000/svg" viewBox="0 0 22 23.1"><path fill="#fff" d="M11 .55c-1.45 0-5.868 0-8.31 2.23C1.235 4.228.55 6.322.55 9.35V11c0 3.028.685 5.122 2.157 6.587a7.615 7.615 0 0 0 2.952 1.571l.391.118v2.93c0 .344.1.344.133.344.068 0 .176-.021.382-.2.049-.049.413-.442 2.178-2.419l.178-.2.267.017c.591.037 1.2.056 1.813.056 1.451 0 5.869 0 8.311-2.23 1.454-1.449 2.14-3.542 2.14-6.57V9.35c0-3.028-.685-5.122-2.157-6.587C16.869.55 12.45.55 11 .55Z" data-name="Path 262"/><path fill="#7e57c2" d="M16.201 13.67a10.662 10.662 0 0 0-1.737-1.177 2.871 2.871 0 0 0-1.168-.393.923.923 0 0 0-.563.288c-.361.361-.479.812-1.112.812a4.417 4.417 0 0 1-2.475-1.444 4.417 4.417 0 0 1-1.445-2.475c0-.633.443-.759.8-1.12a.932.932 0 0 0 .3-.562 2.84 2.84 0 0 0-.393-1.16 10.579 10.579 0 0 0-1.177-1.737.753.753 0 0 0-.581-.3 2.094 2.094 0 0 0-1.125.406 2.648 2.648 0 0 0-1.092 1.421 1.414 1.414 0 0 0-.031.244 3.823 3.823 0 0 0 .48 1.779A18.793 18.793 0 0 0 7.201 11.8a11.859 11.859 0 0 0 .915.98 12.051 12.051 0 0 0 .98.915 18.793 18.793 0 0 0 3.55 2.324 3.88 3.88 0 0 0 1.76.481 1.424 1.424 0 0 0 .262-.032 2.646 2.646 0 0 0 1.421-1.092 2.092 2.092 0 0 0 .412-1.126.753.753 0 0 0-.3-.58Zm.3-2.67a.55.55 0 0 1-.55-.55V9.9a4.956 4.956 0 0 0-4.95-4.95.55.55 0 1 1 0-1.1 6.057 6.057 0 0 1 6.05 6.05v.55a.55.55 0 0 1-.55.55Zm-3.378-1.1a.55.55 0 0 1-.532-.411 1.644 1.644 0 0 0-1.178-1.178.55.55 0 0 1 .276-1.065 2.747 2.747 0 0 1 1.966 1.966.551.551 0 0 1-.532.689Z" data-name="Path 263"/><path fill="#7e57c2" d="M14.85 10.45a.55.55 0 0 1-.55-.55 3.3 3.3 0 0 0-3.119-3.292.55.55 0 0 1 .058-1.1 4.4 4.4 0 0 1 4.165 4.391.55.55 0 0 1-.554.551Z" data-name="Path 264"/><path fill="#7e57c2" d="M11 0C8.525 0 4.668.228 2.319 2.374.658 4.028 0 6.348 0 9.35V11c0 3 .658 5.322 2.319 6.976A8.169 8.169 0 0 0 5.5 19.684v2.522c0 .878.577.894.683.894a1.128 1.128 0 0 0 .742-.343c.089-.079 1.111-1.218 2.223-2.465a29.4 29.4 0 0 0 1.847.058c2.475 0 6.331-.228 8.681-2.374C21.341 16.322 22 14 22 11V9.35c0-3-.658-5.322-2.319-6.976C17.331.228 13.475 0 11 0Zm9.35 10.808V11c0 2.7-.575 4.537-1.807 5.782C16.407 18.7 12.34 18.7 11 18.7c-.408 0-1.07 0-1.852-.055L6.6 21.5v-3.229a7.21 7.21 0 0 1-3.143-1.489C2.225 15.536 1.65 13.7 1.65 11V9.35c0-2.7.575-4.537 1.807-5.782C5.592 1.649 9.659 1.649 11 1.649s5.408 0 7.542 1.919c1.233 1.245 1.807 3.083 1.807 5.782V10.186l.001.622Z" data-name="Path 265"/></svg>