<svg xmlns="http://www.w3.org/2000/svg" viewBox="0 0 22 22"><path fill="#4680c2" d="M14.377 0C20.54 0 22 1.46 22 7.623v6.754C22 20.54 20.54 22 14.377 22H7.623C1.46 22 0 20.54 0 14.377V7.623C0 1.46 1.46 0 7.623 0h6.754ZM5.853 6.971H4.24c-.466 0-.544.217-.544.45a12.977 12.977 0 0 0 2.53 5.326 6.232 6.232 0 0 0 4.891 2.934c1.025 0 1.15-.233 1.15-.621v-1.444c0-.466.092-.543.418-.543.233 0 .653.124 1.6 1.04 1.086 1.087 1.273 1.587 1.878 1.587h1.6c.465 0 .683-.233.558-.684a6.912 6.912 0 0 0-1.35-1.878c-.373-.435-.932-.916-1.1-1.15-.233-.31-.17-.434 0-.713a21.264 21.264 0 0 0 2.143-3.695c.109-.342 0-.59-.481-.59h-1.6a.707.707 0 0 0-.7.45 13.633 13.633 0 0 1-1.972 3.276c-.373.372-.543.5-.745.5-.109 0-.249-.125-.249-.466V7.56c0-.4-.124-.59-.465-.59H9.285a.385.385 0 0 0-.4.373c0 .388.574.481.636 1.568v2.36c0 .512-.093.6-.3.6-.543 0-1.863-2-2.655-4.285-.155-.45-.31-.62-.714-.62Z" data-name="Path 260"/></svg>