<svg xmlns="http://www.w3.org/2000/svg" viewBox="0 0 22 22.093"><g fill-rule="evenodd"><path fill="#fff" d="m.548 21.548 1.477-5.391a10.408 10.408 0 1 1 9.018 5.211 10.4 10.4 0 0 1-4.974-1.267Z" data-name="Path 255"/><path fill="#fff" d="M.548 21.819a.274.274 0 0 1-.264-.346l1.447-5.282a10.681 10.681 0 1 1 4.3 4.2L.618 21.809a.251.251 0 0 1-.07.01Z" data-name="Path 256"/><path fill="#cfd8dc" d="M11.043.548a10.408 10.408 0 0 1 0 20.816A10.4 10.4 0 0 1 6.065 20.1L.548 21.545l1.477-5.391A10.409 10.409 0 0 1 11.043.548M11.043 0a10.959 10.959 0 0 0-9.611 16.226L.019 21.4a.548.548 0 0 0 .668.675l5.31-1.392A10.957 10.957 0 1 0 11.043 0Z" data-name="Path 257"/><path fill="#40c351" d="M17.16 4.842A8.651 8.651 0 0 0 3.715 15.555l.206.327-.874 3.191 3.274-.858.316.187a8.634 8.634 0 0 0 4.4 1.205A8.651 8.651 0 0 0 17.16 4.842Z" data-name="Path 258"/><path fill="#fff" d="M8.442 6.603c-.195-.433-.4-.442-.585-.449-.152-.007-.325-.006-.5-.006a.956.956 0 0 0-.693.326 2.915 2.915 0 0 0-.911 2.169 5.057 5.057 0 0 0 1.063 2.69 10.677 10.677 0 0 0 4.442 3.925c2.2.866 2.644.694 3.121.651a2.625 2.625 0 0 0 1.755-1.236 2.178 2.178 0 0 0 .155-1.24c-.065-.109-.238-.173-.5-.3s-1.539-.759-1.777-.846-.412-.13-.585.13-.672.846-.823 1.019-.3.2-.564.065a7.118 7.118 0 0 1-2.091-1.29 7.835 7.835 0 0 1-1.447-1.8c-.152-.26-.016-.4.114-.531s.26-.3.39-.456a1.778 1.778 0 0 0 .26-.434.478.478 0 0 0-.022-.456c-.066-.131-.571-1.417-.802-1.931Z" data-name="Path 259"/></g></svg>