<svg xmlns="http://www.w3.org/2000/svg" viewBox="0 0 193.69 50"><path fill="#3c4d5d" d="M18.368.859a13.878 13.878 0 0 1 4.082 2.417L19.12 7.25a12.2 12.2 0 0 0-2.578-1.558 7.771 7.771 0 0 0-2.739-.537 5.524 5.524 0 0 0-4.726 2.524c-1.128 1.665-1.719 4.243-1.719 7.788 0 3.437.591 6.015 1.719 7.68a5.44 5.44 0 0 0 4.78 2.471 6.793 6.793 0 0 0 2.954-.645 19.835 19.835 0 0 0 2.847-1.772l3.115 4.028a13.359 13.359 0 0 1-4.028 2.739 12.727 12.727 0 0 1-5.21 1.074 13.957 13.957 0 0 1-7.143-1.772 11.762 11.762 0 0 1-4.726-5.317 19.447 19.447 0 0 1-1.665-8.486A19.027 19.027 0 0 1 1.72 7.142 12.454 12.454 0 0 1 6.5 1.825a13.608 13.608 0 0 1 6.928-1.826 15.581 15.581 0 0 1 4.94.86Z" data-name="Path 502"/><path fill="#3c4d5d" d="m41.624 7.62-.806 4.995h-6.122v17.67h-6.714v-17.67h-6.606V7.62h20.248Z" data-name="Path 503"/><path fill="#3c4d5d" d="M62.368 21H48.35a6.376 6.376 0 0 0 1.611 4.028 4.945 4.945 0 0 0 3.545 1.128 7.367 7.367 0 0 0 2.632-.483 13.143 13.143 0 0 0 2.793-1.5l2.793 3.76a13.859 13.859 0 0 1-8.808 3.169c-3.652 0-6.5-1.074-8.432-3.223-1.987-2.148-2.954-5.049-2.954-8.7a15.538 15.538 0 0 1 1.235-6.23 10.233 10.233 0 0 1 3.6-4.35 9.982 9.982 0 0 1 5.693-1.611 9.8 9.8 0 0 1 7.68 3.061c1.826 2.041 2.793 4.887 2.793 8.54q-.083 1.364-.163 2.411Zm-6.5-4.35c-.054-3.491-1.289-5.21-3.652-5.21a3.06 3.06 0 0 0-2.685 1.289 8.345 8.345 0 0 0-1.182 4.243h7.573v-.322Z" data-name="Path 504"/><path fill="#3c4d5d" d="M79.115 30.285v-9.023h-6.23v9.023h-6.714V7.62h6.714v8.647h6.23V7.62h6.714v22.665Z" data-name="Path 505"/><path fill="#3c4d5d" d="M111.651 25.323v12.031h-4.673l-.752-7.09h-12.35l-.752 7.09h-4.673V25.323h1.4a4.05 4.05 0 0 0 1.235-1.45 10.847 10.847 0 0 0 .913-2.9 56.357 56.357 0 0 0 .7-5.693l.645-7.68h16.005v17.724Zm-8.7-13.266H99.03l-.215 2.632a45.1 45.1 0 0 1-.752 5.478 9.169 9.169 0 0 1-1.235 3.222 5.721 5.721 0 0 1-2.041 1.88h8.164V12.057Z" data-name="Path 506"/><path fill="#3c4d5d" d="M132.373 10.151c1.987 2.095 2.954 5.1 2.954 8.916a13.937 13.937 0 0 1-1.343 6.338 9.639 9.639 0 0 1-3.813 4.189 11.114 11.114 0 0 1-5.908 1.5 10.636 10.636 0 0 1-8.11-3.169c-1.987-2.095-2.954-5.1-2.954-8.916a13.937 13.937 0 0 1 1.343-6.338 9.639 9.639 0 0 1 3.813-4.189 11.115 11.115 0 0 1 5.908-1.5 10.446 10.446 0 0 1 8.11 3.169Zm-11.225 3.491a10.673 10.673 0 0 0-1.02 5.371c0 2.471.322 4.3 1.02 5.425a3.634 3.634 0 0 0 6.176 0 10.673 10.673 0 0 0 1.02-5.371c0-2.471-.322-4.3-1.02-5.425a3.375 3.375 0 0 0-3.115-1.719 3.305 3.305 0 0 0-3.061 1.719Z" data-name="Path 507"/><path fill="#f99c2c" d="M158.894 23.47a5.713 5.713 0 0 1-2.685 5.156 14.014 14.014 0 0 1-7.412 1.719h-9.614V7.895a48.271 48.271 0 0 1 8.969-.913 14.175 14.175 0 0 1 7.2 1.558 5.016 5.016 0 0 1 2.578 4.565 4.207 4.207 0 0 1-1.235 3.115 6.84 6.84 0 0 1-3.545 1.665c3.81.429 5.744 2.309 5.744 5.585ZM145.95 11.332v5.21h2.363a3.207 3.207 0 0 0 2.148-.645 2.458 2.458 0 0 0 .752-2.041q0-2.578-3.223-2.578c-.858.004-1.556.004-2.04.054Zm6.015 11.547a2.673 2.673 0 0 0-.806-2.095 4.108 4.108 0 0 0-2.578-.7h-2.685v5.8h2.632c2.31.003 3.438-1.017 3.438-3.002Z" data-name="Path 508"/><path fill="#f99c2c" d="M180.37 10.151c1.987 2.095 2.954 5.1 2.954 8.916a13.936 13.936 0 0 1-1.343 6.338 9.639 9.639 0 0 1-3.813 4.189 11.114 11.114 0 0 1-5.908 1.5 10.636 10.636 0 0 1-8.11-3.169c-1.987-2.095-2.954-5.1-2.954-8.916a13.937 13.937 0 0 1 1.343-6.338 9.639 9.639 0 0 1 3.813-4.189 11.115 11.115 0 0 1 5.908-1.5c3.436 0 6.176 1.02 8.11 3.169Zm-13.481 11.923a10.673 10.673 0 0 0 5.371 1.02c2.471 0 4.3-.322 5.425-1.02a3.634 3.634 0 0 0 0-6.176 10.673 10.673 0 0 0-5.371-1.02c-2.471 0-4.3.322-5.425 1.02a3.375 3.375 0 0 0-1.719 3.115 3.211 3.211 0 0 0 1.719 3.061Z" data-name="Path 509"/><path fill="#f99c2c" d="M192.562 24.437a3.84 3.84 0 0 1-2.739 6.552 3.61 3.61 0 0 1-2.685-1.128 3.729 3.729 0 0 1-1.128-2.739 3.61 3.61 0 0 1 1.128-2.685 3.825 3.825 0 0 1 5.425 0Zm.806-22.88-.806 17.187a.724.724 0 0 1-.752.7h-4.082a.8.8 0 0 1-.752-.7l-.806-17.187a.734.734 0 0 1 .752-.752h5.639a.721.721 0 0 1 .807.753Z" data-name="Path 510"/><path fill="#f99c2c" d="M60.8 48.286 1.345 49.36A1.226 1.226 0 0 1 0 48.286v-6.821a1.226 1.226 0 0 1 1.343-1.074l59.455 1.074a1.226 1.226 0 0 1 1.343 1.074v4.673a1.226 1.226 0 0 1-1.341 1.074Z" data-name="Path 511"/><g fill="#3c4d5d" data-name="Group 501"><path d="M69.999 41.461a3.129 3.129 0 0 1 .967.591l-.806.913c-.215-.161-.43-.269-.591-.376a2.7 2.7 0 0 0-.645-.107 1.33 1.33 0 0 0-1.128.591 3.264 3.264 0 0 0-.43 1.826 3.067 3.067 0 0 0 .43 1.772 1.33 1.33 0 0 0 1.128.591 1.487 1.487 0 0 0 .7-.161 2.247 2.247 0 0 0 .645-.43l.752.913a3.048 3.048 0 0 1-.967.645 2.984 2.984 0 0 1-1.235.269 3.333 3.333 0 0 1-1.665-.43 2.808 2.808 0 0 1-1.128-1.235 4.529 4.529 0 0 1-.377-1.987 4.28 4.28 0 0 1 .43-1.934 2.808 2.808 0 0 1 1.128-1.235 3.281 3.281 0 0 1 1.611-.43 2.584 2.584 0 0 1 1.181.214Z" data-name="Path 512"/><path d="m76.391 41.407-.161 1.235h-1.719v5.639h-1.665v-5.639h-1.772v-1.235Z" data-name="Path 513"/><path d="m81.332 41.407-.161 1.182H78.7v1.665h2.148v1.128H78.7v1.772h2.632v1.182h-4.243v-6.929h4.243Z" data-name="Path 514"/><path d="M86.058 48.335v-2.954h-2.095v2.954h-1.611v-6.928h1.611v2.685h2.095v-2.685h1.611v6.928Z" data-name="Path 515"/><path d="M94.49 47.1V50h-1.13l-.161-1.665h-3.652L89.386 50H88.26v-2.9h.483a1.28 1.28 0 0 0 .322-.591 8.947 8.947 0 0 0 .269-1.02c.054-.43.161-1.074.269-1.88l.269-2.2H93.9v5.693Zm-2.2-4.458h-1.074l-.054.806a11.193 11.193 0 0 1-.269 1.826 5.549 5.549 0 0 1-.376 1.128 3.449 3.449 0 0 1-.537.7h2.309Z" data-name="Path 516"/><path d="M99.592 44.361a1.942 1.942 0 0 1 .7 1.665 2.192 2.192 0 0 1-.752 1.772 3.128 3.128 0 0 1-1.987.591h-2.311v-6.928h1.611v2.363h.645a3.046 3.046 0 0 1 2.094.537Zm-1.289 2.524a1.042 1.042 0 0 0 .269-.859 1.112 1.112 0 0 0-.269-.806 1.32 1.32 0 0 0-.913-.269h-.483v2.256h.535a1.8 1.8 0 0 0 .861-.322Zm2.524-5.478h1.665v6.928h-1.665Z" data-name="Path 517"/><path d="M110.119 41.461a3.129 3.129 0 0 1 .967.591l-.806.913c-.215-.161-.43-.269-.591-.376a1.259 1.259 0 0 0-.645-.107 1.33 1.33 0 0 0-1.128.591 3.264 3.264 0 0 0-.43 1.826 3.067 3.067 0 0 0 .43 1.772 1.33 1.33 0 0 0 1.128.591 1.487 1.487 0 0 0 .7-.161 2.248 2.248 0 0 0 .645-.43l.752.913a3.048 3.048 0 0 1-.967.645 2.984 2.984 0 0 1-1.235.269 3.333 3.333 0 0 1-1.665-.43 2.808 2.808 0 0 1-1.128-1.235 4.529 4.529 0 0 1-.377-1.987 4.28 4.28 0 0 1 .43-1.934 2.807 2.807 0 0 1 1.128-1.235 3.281 3.281 0 0 1 1.611-.43 2.889 2.889 0 0 1 1.181.214Z" data-name="Path 518"/><path d="M119.572 41.407v6.928h-1.611v-5.639h-2.041v5.639h-1.611v-6.928Z" data-name="Path 519"/><path d="m125.104 41.407-.161 1.182h-2.417v1.665h2.148v1.128h-2.148v1.772h2.632v1.182h-4.243v-6.929h4.189Z" data-name="Path 520"/><path d="M131.012 41.407v6.928h-1.611v-2.582a2.229 2.229 0 0 1-.7.376 2.087 2.087 0 0 1-.806.107 1.912 1.912 0 0 1-1.558-.645 2.562 2.562 0 0 1-.591-1.719v-2.519h1.611v2.471a1.437 1.437 0 0 0 .215.913.872.872 0 0 0 .752.269 1.463 1.463 0 0 0 1.074-.376v-3.277h1.611Z" data-name="Path 521"/><path d="m135.953 48.335-.376-1.5h-2.041l-.376 1.5h-1.718l2.095-6.928h1.987l2.095 6.928Zm-2.095-2.685h1.45l-.752-3.061Z" data-name="Path 522"/><path d="m142.451 41.407-.163 1.235h-1.719v5.639h-1.611v-5.639h-1.77v-1.235Z" data-name="Path 523"/><path d="M147.501 44.361a1.942 1.942 0 0 1 .7 1.665 2.192 2.192 0 0 1-.752 1.772 3.128 3.128 0 0 1-1.987.591h-2.419v-6.928h1.611v2.363h.752a3.047 3.047 0 0 1 2.095.537Zm-1.289 2.524a1.042 1.042 0 0 0 .269-.859 1.112 1.112 0 0 0-.269-.806 1.32 1.32 0 0 0-.913-.269h-.591v2.256h.644a1.8 1.8 0 0 0 .86-.321Z" data-name="Path 524"/><path d="M156.523 42.212a4.009 4.009 0 0 1 .806 2.685 4.288 4.288 0 0 1-.376 1.934 2.6 2.6 0 0 1-1.02 1.235 3.131 3.131 0 0 1-1.611.43 2.63 2.63 0 0 1-2.041-.806 3.622 3.622 0 0 1-.859-2.309h-.752v2.954h-1.612v-6.928h1.611v2.685h.752a4.158 4.158 0 0 1 .913-2.148 2.672 2.672 0 0 1 1.987-.752 2.786 2.786 0 0 1 2.202 1.02Zm-1.235 4.511a4.067 4.067 0 0 0 .322-1.88 4.221 4.221 0 0 0-.322-1.88 1.086 1.086 0 0 0-1.933 0 4.067 4.067 0 0 0-.322 1.88 3.814 3.814 0 0 0 .322 1.826 1.07 1.07 0 0 0 .967.591.872.872 0 0 0 .966-.536Z" data-name="Path 525"/><path d="M164.419 48.335v-2.954h-2.095v2.954h-1.611v-6.928h1.611v2.685h2.095v-2.685h1.611v6.928Z" data-name="Path 526"/><path d="m170.97 48.335-.376-1.5h-2.041l-.376 1.5h-1.718l2.095-6.928h1.987l2.095 6.928Zm-2.095-2.685h1.45l-.752-3.061Z" data-name="Path 527"/><path d="M180.907 41.407v6.928h-1.611v-5.639h-2.041v5.639h-1.611v-6.928Z" data-name="Path 528"/><path d="M187.03 45.166a1.539 1.539 0 0 1 .43 1.128 1.642 1.642 0 0 1-.806 1.558 4.35 4.35 0 0 1-2.2.43h-2.2v-6.929h1.934a4.687 4.687 0 0 1 2.2.43 1.378 1.378 0 0 1 .752 1.343 1.149 1.149 0 0 1-.376.967 1.526 1.526 0 0 1-.913.483 4.775 4.775 0 0 1 1.179.59Zm-3.169-2.578v1.611h.589c.7 0 1.02-.269 1.02-.859a.693.693 0 0 0-.269-.591 1.836 1.836 0 0 0-.913-.161Zm1.611 4.35a.739.739 0 0 0 .322-.7c0-.645-.376-.967-1.182-.967h-.7v1.88h.591a1.839 1.839 0 0 0 .969-.212Z" data-name="Path 529"/><path d="m191.38 44.629 1.987 3.76h-1.772l-1.182-2.632-1.182 2.632h-1.718l1.934-3.652-1.772-3.222h1.772l1.02 2.2 1.074-2.2h1.719Z" data-name="Path 530"/></g></svg>